<?xml version="1.0" encoding="iso-8859-1"?>
<!-- Generator: Adobe Illustrator 19.0.0, SVG Export Plug-In . SVG Version: 6.00 Build 0)  -->
<svg version="1.1" id="Layer_1" xmlns="http://www.w3.org/2000/svg" xmlns:xlink="http://www.w3.org/1999/xlink" x="0px" y="0px"
	 viewBox="0 0 512 512" style="enable-background:new 0 0 512 512;" xml:space="preserve">
<g transform="translate(0 1)">
	<g>
		<path style="fill:#FFE100;" d="M217.908,50.2c-5.12,0-8.533-3.413-8.533-8.533V7.533c0-5.12,3.413-8.533,8.533-8.533
			c5.12,0,8.533,3.413,8.533,8.533v34.133C226.441,46.787,223.028,50.2,217.908,50.2z"/>
		<path style="fill:#FFE100;" d="M311.774,101.4h-34.133c-5.12,0-8.533-3.413-8.533-8.533s3.413-8.533,8.533-8.533h34.133
			c5.12,0,8.533,3.413,8.533,8.533S316.894,101.4,311.774,101.4z"/>
		<path style="fill:#FFE100;" d="M149.641,101.4h-34.133c-5.12,0-8.533-3.413-8.533-8.533s3.413-8.533,8.533-8.533h34.133
			c5.12,0,8.533,3.413,8.533,8.533S154.761,101.4,149.641,101.4z"/>
		<path style="fill:#FFE100;" d="M260.574,67.267c-2.56,0-4.267-0.853-5.973-2.56c-3.413-3.413-3.413-8.533,0-11.947l25.6-25.6
			c3.413-3.413,8.533-3.413,11.947,0s3.413,8.533,0,11.947l-25.6,25.6C264.841,66.413,263.134,67.267,260.574,67.267z"/>
		<path style="fill:#FFE100;" d="M166.708,67.267c-2.56,0-4.267-0.853-5.973-2.56l-25.6-25.6c-3.413-3.413-3.413-8.533,0-11.947
			s8.533-3.413,11.947,0l25.6,25.6c3.413,3.413,3.413,8.533,0,11.947C170.974,66.413,169.268,67.267,166.708,67.267z"/>
		<path style="fill:#FFE100;" d="M362.974,511v-68.267l0,0c27.307-36.693,25.6-17.92,25.6-102.4V255
			c0-16.213-13.653-34.133-29.867-34.133l0,0c-16.213,0-4.267,17.92-4.267,34.133v17.067v-59.733
			c0-16.213-13.653-34.133-29.867-34.133l0,0c-16.213,0-29.867,17.92-29.867,34.133v59.733V178.2
			c0-16.213-13.653-34.133-29.867-34.133l0,0c-16.213,0-21.333,17.92-21.333,34.133l-8.533,85.333v-153.6
			c0-16.213-0.853-34.133-17.067-34.133l0,0c-16.213,0-17.067,17.92-17.067,34.133v187.733c0-23.893-20.48-46.08-42.667-68.267l0,0
			c-18.773-18.773-71.68-31.573-42.667,8.533c20.48,28.16,29.013,88.747,34.133,119.467c12.8,75.093,59.733,85.333,59.733,85.333
			V511"/>
	</g>
	<path style="fill:#FFA800;" d="M414.174,340.333V255c0-16.213-13.653-34.133-29.867-34.133l0,0c-4.267,0-8.533,1.707-12.8,3.413
		c10.24,5.973,17.067,18.773,17.067,30.72v85.333c0,84.48,1.707,65.707-25.6,102.4l0,0V511h25.6v-68.267l0,0
		C416.734,406.04,414.174,424.813,414.174,340.333"/>
	<path style="fill:#FFE100;" d="M439.774,340.333V255c0-16.213-13.653-34.133-29.867-34.133l0,0c-4.267,0-8.533,1.707-12.8,3.413
		c10.24,5.973,17.067,18.773,17.067,30.72v85.333c0,84.48,1.707,65.707-25.6,102.4l0,0V511h25.6v-68.267l0,0
		C441.481,406.04,439.774,424.813,439.774,340.333"/>
	<g>
		<path style="fill:#FFFFFF;" d="M149.641,357.4c-5.12-30.72-13.653-91.307-34.133-119.467c-23.893-33.28,7.68-29.867,30.72-17.067
			c-4.267-5.973-8.533-11.947-13.653-17.067c-18.773-18.773-71.68-5.973-42.667,34.133c20.48,28.16,29.013,88.747,34.133,119.467
			c12.8,75.093,59.733,85.333,59.733,85.333V511h25.6v-68.267C209.374,442.733,162.441,432.493,149.641,357.4"/>
		<path style="fill:#FFFFFF;" d="M200.841,297.667V109.933c0-14.507,0.853-29.013,11.093-33.28c-2.56,0-4.267-0.853-6.827-0.853l0,0
			c-16.213,0-29.867,17.92-29.867,34.133V247.32C189.748,263.533,200.841,280.6,200.841,297.667"/>
	</g>
	<path d="M183.774,511c-5.12,0-8.533-3.413-8.533-8.533v-53.76c-14.507-5.973-48.64-26.453-59.733-90.453l-1.707-8.533
		c-5.12-30.72-13.653-82.773-31.573-107.52c-19.627-27.307-5.12-42.667-0.853-46.933c15.36-12.8,42.667-11.947,56.32,1.707
		c10.24,10.24,20.48,25.6,28.16,41.813v-26.453c0-5.12,3.413-8.533,8.533-8.533c5.12,0,8.533,3.413,8.533,8.533v85.333
		c0,5.12-3.413,8.533-8.533,8.533c-5.12,0-8.533-3.413-8.533-8.533c0-21.333-18.773-66.56-40.107-87.893
		c-7.68-7.68-24.747-7.68-33.28-0.853c-7.68,5.973-2.56,16.213,3.413,23.893c19.627,27.307,28.16,79.36,34.133,114.347l1.707,8.533
		c11.947,68.267,51.2,77.653,52.907,78.507c4.267,0.853,6.827,4.267,6.827,8.533v59.733C192.308,507.587,188.894,511,183.774,511z"
		/>
	<path d="M388.574,511L388.574,511c-5.12,0-8.533-3.413-8.533-8.533v-58.88c0-1.707,0-4.267,1.707-5.973
		c5.12-5.973,8.533-11.093,11.947-14.507c11.947-15.36,11.947-15.36,11.947-65.707V255c0-11.947-9.387-25.6-21.333-25.6
		c-11.093,0-20.48,12.8-21.333,23.893v18.773c0,5.12-3.413,8.533-8.533,8.533l0,0c-5.12,0-8.533-3.413-8.533-8.533V255
		c0-0.853,0-1.707,0-2.56v-40.107c0-6.827-3.413-14.507-8.533-19.627c-4.267-4.267-8.533-5.973-12.8-5.973
		c-11.947,0-21.333,13.653-21.333,25.6v59.733c0,5.12-3.413,8.533-8.533,8.533c-5.12,0-8.533-3.413-8.533-8.533V178.2
		c0-6.827-3.413-14.507-8.533-19.627c-4.267-4.267-8.533-5.973-12.8-5.973c-11.947,0-20.48,13.653-21.333,24.747v86.187l0,0l0,0
		c0,5.12-3.413,8.533-8.533,8.533l0,0c-5.12,0-8.533-3.413-8.533-8.533V178.2v-0.853v-67.413c0-11.947-9.387-25.6-21.333-25.6
		c-11.947,0-21.333,13.653-21.333,25.6v34.133c0,5.12-3.413,8.533-8.533,8.533c-5.12,0-8.533-3.413-8.533-8.533v-34.133
		c0-20.48,16.213-42.667,38.4-42.667s38.4,22.187,38.4,42.667v33.28c5.973-5.12,13.653-7.68,21.333-7.68
		c9.387,0,17.92,4.267,24.747,11.093c8.533,8.533,12.8,19.627,13.653,30.72c5.973-5.12,13.653-7.68,21.333-7.68
		c9.387,0,17.92,4.267,24.747,11.093c8.533,8.533,13.653,20.48,13.653,31.573v7.68c5.973-5.12,13.653-7.68,21.333-7.68
		c22.187,0,38.4,22.187,38.4,42.667v101.547c0,54.613,0,57.173-16.213,76.8c-2.56,3.413-5.973,6.827-9.387,11.947v57.173
		C397.108,507.587,393.694,511,388.574,511z"/>
	<path d="M183.774,178.2c0-5.12-3.413-8.533-8.533-8.533c-5.12,0-8.533,3.413-8.533,8.533c0,5.12,3.413,8.533,8.533,8.533
		C180.361,186.733,183.774,183.32,183.774,178.2"/>
	<path d="M209.374,50.2c-5.12,0-8.533-3.413-8.533-8.533V7.533c0-5.12,3.413-8.533,8.533-8.533c5.12,0,8.533,3.413,8.533,8.533
		v34.133C217.908,46.787,214.494,50.2,209.374,50.2z"/>
	<path d="M303.241,101.4h-34.133c-5.12,0-8.533-3.413-8.533-8.533s3.413-8.533,8.533-8.533h34.133c5.12,0,8.533,3.413,8.533,8.533
		S308.361,101.4,303.241,101.4z"/>
	<path d="M141.108,101.4h-34.133c-5.12,0-8.533-3.413-8.533-8.533s3.413-8.533,8.533-8.533h34.133c5.12,0,8.533,3.413,8.533,8.533
		S146.228,101.4,141.108,101.4z"/>
	<path d="M252.041,67.267c-2.56,0-4.267-0.853-5.973-2.56c-3.413-3.413-3.413-8.533,0-11.947l25.6-25.6
		c3.413-3.413,8.533-3.413,11.947,0s3.413,8.533,0,11.947l-25.6,25.6C256.308,66.413,254.601,67.267,252.041,67.267z"/>
	<path d="M158.174,67.267c-2.56,0-4.267-0.853-5.973-2.56l-25.6-25.6c-3.413-3.413-3.413-8.533,0-11.947
		c3.413-3.413,8.533-3.413,11.947,0l25.6,25.6c3.413,3.413,3.413,8.533,0,11.947C162.441,66.413,160.734,67.267,158.174,67.267z"/>
	<path d="M294.708,434.2h-25.6c-5.12,0-8.533-3.413-8.533-8.533s3.413-8.533,8.533-8.533h25.6c5.12,0,8.533,3.413,8.533,8.533
		S299.828,434.2,294.708,434.2z"/>
	<path d="M303.241,468.333h-42.667c-5.12,0-8.533-3.413-8.533-8.533s3.413-8.533,8.533-8.533h42.667c5.12,0,8.533,3.413,8.533,8.533
		S308.361,468.333,303.241,468.333z"/>
</g>
<g>
</g>
<g>
</g>
<g>
</g>
<g>
</g>
<g>
</g>
<g>
</g>
<g>
</g>
<g>
</g>
<g>
</g>
<g>
</g>
<g>
</g>
<g>
</g>
<g>
</g>
<g>
</g>
<g>
</g>
</svg>
